<svg width="86" height="124" viewBox="0 0 86 124" fill="none" xmlns="http://www.w3.org/2000/svg">
<path d="M2.41706 1L0 5.30588M2.41706 30.4235L0 34.7294M2.41706 59.8471L0 64.1529M2.41706 89.2706L0 93.5765M2.41706 118.694L0 123M18.9336 1L16.5166 5.30588M18.9336 30.4235L16.5166 34.7294M18.9336 59.8471L16.5166 64.1529M18.9336 89.2706L16.5166 93.5765M18.9336 118.694L16.5166 123M35.4502 1L33.0332 5.30588M35.4502 30.4235L33.0332 34.7294M35.4502 59.8471L33.0332 64.1529M35.4502 89.2706L33.0332 93.5765M35.4502 118.694L33.0332 123M51.9668 1L49.5498 5.30588M51.9668 30.4235L49.5498 34.7294M51.9668 59.8471L49.5498 64.1529M51.9668 89.2706L49.5498 93.5765M51.9668 118.694L49.5498 123M68.4834 1L66.0663 5.30588M68.4834 30.4235L66.0663 34.7294M68.4834 59.8471L66.0663 64.1529M68.4834 89.2706L66.0663 93.5765M68.4834 118.694L66.0663 123M85 1L82.5829 5.30588M85 30.4235L82.5829 34.7294M85 59.8471L82.5829 64.1529M85 89.2706L82.5829 93.5765M85 118.694L82.5829 123" stroke="#34251F" stroke-width="2"/>
</svg>
