<svg width="141" height="130" viewBox="0 0 141 130" fill="none" xmlns="http://www.w3.org/2000/svg">
<path d="M4.95261 1L1 5.51765M4.95261 31.8706L1 36.3882M4.95261 62.7412L1 67.2588M4.95261 93.6118L1 98.1294M4.95261 124.482L1 129M31.9621 1L28.0095 5.51765M31.9621 31.8706L28.0095 36.3882M31.9621 62.7412L28.0095 67.2588M31.9621 93.6118L28.0095 98.1294M31.9621 124.482L28.0095 129M58.9716 1L55.019 5.51765M58.9716 31.8706L55.019 36.3882M58.9716 62.7412L55.019 67.2588M58.9716 93.6118L55.019 98.1294M58.9716 124.482L55.019 129M85.981 1L82.0284 5.51765M85.981 31.8706L82.0284 36.3882M85.981 62.7412L82.0284 67.2588M85.981 93.6118L82.0284 98.1294M85.981 124.482L82.0284 129M112.991 1L109.038 5.51765M112.991 31.8706L109.038 36.3882M112.991 62.7412L109.038 67.2588M112.991 93.6118L109.038 98.1294M112.991 124.482L109.038 129M140 1L136.047 5.51765M140 31.8706L136.047 36.3882M140 62.7412L136.047 67.2588M140 93.6118L136.047 98.1294M140 124.482L136.047 129" stroke="#34251F" stroke-width="2"/>
</svg>
