<svg width="1512" height="38" viewBox="0 0 1512 38" fill="none" xmlns="http://www.w3.org/2000/svg">
<path d="M0 18.955C50.4 -4.985 100.8 -4.985 151.2 18.955C201.6 42.895 252 42.895 302.4 18.955C352.8 -4.985 403.2 -4.985 453.6 18.955C504 42.895 554.4 42.895 604.8 18.955C655.2 -4.985 705.6 -4.985 756 18.955C806.4 42.895 856.8 42.895 907.2 18.955C957.6 -4.985 1008 -4.985 1058.4 18.955C1108.8 42.895 1159.2 42.895 1209.6 18.955C1260 -4.985 1310.4 -4.985 1360.8 18.955C1411.2 42.895 1461.6 42.895 1512 18.955" stroke="#4E4842" stroke-opacity="0.15" stroke-width="2" stroke-linejoin="round"/>
</svg>
