<svg width="150" height="147" viewBox="0 0 150 147" fill="none" xmlns="http://www.w3.org/2000/svg">
<path d="M5.20853 1L1 6.11765M5.20853 35.9706L1 41.0882M5.20853 70.9412L1 76.0588M5.20853 105.912L1 111.029M5.20853 140.882L1 146M33.9668 1L29.7583 6.11765M33.9668 35.9706L29.7583 41.0882M33.9668 70.9412L29.7583 76.0588M33.9668 105.912L29.7583 111.029M33.9668 140.882L29.7583 146M62.7251 1L58.5166 6.11765M62.7251 35.9706L58.5166 41.0882M62.7251 70.9412L58.5166 76.0588M62.7251 105.912L58.5166 111.029M62.7251 140.882L58.5166 146M91.4834 1L87.2749 6.11765M91.4834 35.9706L87.2749 41.0882M91.4834 70.9412L87.2749 76.0588M91.4834 105.912L87.2749 111.029M91.4834 140.882L87.2749 146M120.242 1L116.033 6.11765M120.242 35.9706L116.033 41.0882M120.242 70.9412L116.033 76.0588M120.242 105.912L116.033 111.029M120.242 140.882L116.033 146M149 1L144.791 6.11765M149 35.9706L144.791 41.0882M149 70.9412L144.791 76.0588M149 105.912L144.791 111.029M149 140.882L144.791 146" stroke="#34251F" stroke-width="2"/>
</svg>
