<svg width="168" height="147" viewBox="0 0 168 147" fill="none" xmlns="http://www.w3.org/2000/svg">
<path d="M5.72038 1L1 6.11765M5.72038 35.9706L1 41.0882M5.72038 70.9412L1 76.0588M5.72038 105.912L1 111.029M5.72038 140.882L1 146M37.9763 1L33.2559 6.11765M37.9763 35.9706L33.2559 41.0882M37.9763 70.9412L33.2559 76.0588M37.9763 105.912L33.2559 111.029M37.9763 140.882L33.2559 146M70.2322 1L65.5118 6.11765M70.2322 35.9706L65.5118 41.0882M70.2322 70.9412L65.5118 76.0588M70.2322 105.912L65.5118 111.029M70.2322 140.882L65.5118 146M102.488 1L97.7678 6.11765M102.488 35.9706L97.7678 41.0882M102.488 70.9412L97.7678 76.0588M102.488 105.912L97.7678 111.029M102.488 140.882L97.7678 146M134.744 1L130.024 6.11765M134.744 35.9706L130.024 41.0882M134.744 70.9412L130.024 76.0588M134.744 105.912L130.024 111.029M134.744 140.882L130.024 146M167 1L162.28 6.11765M167 35.9706L162.28 41.0882M167 70.9412L162.28 76.0588M167 105.912L162.28 111.029M167 140.882L162.28 146" stroke="#34251F" stroke-width="2"/>
</svg>
