<svg width="5" height="22" viewBox="0 0 5 22" fill="none" xmlns="http://www.w3.org/2000/svg">
<path fill-rule="evenodd" clip-rule="evenodd" d="M2.45283 0C3.86792 0 5 1.13208 5 2.45283C5 3.86792 3.86792 5 2.45283 5C1.13208 5 0 3.86792 0 2.45283C0 1.13208 1.13208 0 2.45283 0Z" fill="#313131"/>
<path fill-rule="evenodd" clip-rule="evenodd" d="M2.45283 8.35181C3.86792 8.35181 5 9.38954 5 10.8046C5 12.2197 3.86792 13.3518 2.45283 13.3518C1.13208 13.3518 0 12.2197 0 10.8046C0 9.38954 1.13208 8.35181 2.45283 8.35181Z" fill="#313131"/>
<path fill-rule="evenodd" clip-rule="evenodd" d="M2.45283 16.6018C3.86792 16.6018 5 17.7339 5 19.149C5 20.4697 3.86792 21.6018 2.45283 21.6018C1.13208 21.6018 0 20.4697 0 19.149C0 17.7339 1.13208 16.6018 2.45283 16.6018Z" fill="#313131"/>
</svg>
