<svg width="122" height="25" viewBox="0 0 122 25" fill="none" xmlns="http://www.w3.org/2000/svg">
<path fill-rule="evenodd" clip-rule="evenodd" d="M18.7039 5.69112C18.7039 8.81997 16.1659 11.3565 13.0349 11.3565C9.90386 11.3565 7.3658 8.81997 7.3658 5.69112C7.3658 2.56289 9.90386 0.0263672 13.0349 0.0263672C16.1659 0.0263672 18.7039 2.56289 18.7039 5.69112ZM5.67045 12.7729C2.53949 12.7729 0.00131226 15.3086 0.00131226 18.4375C0.00131226 21.5661 2.53949 24.1024 5.67045 24.1024C8.80153 24.1024 11.3398 21.5661 11.3398 18.4375C11.3398 15.3086 8.80153 12.7729 5.67045 12.7729ZM20.3993 12.7724C17.2683 12.7724 14.7302 15.3086 14.7302 18.4375C14.7302 21.5661 17.2683 24.1024 20.3993 24.1024C23.5303 24.1024 26.0684 21.5661 26.0684 18.4375C26.0684 15.3086 23.5303 12.7724 20.3993 12.7724Z" fill="#40A2D5"/>
<path fill-rule="evenodd" clip-rule="evenodd" d="M46.015 18.3723C46.0889 19.2127 46.7616 20.2824 47.9271 20.2824H48.609C48.8733 20.2824 49.09 20.0659 49.09 19.8015V4.81562H49.0871C49.0732 4.56316 48.8645 4.36096 48.609 4.36096H46.496C46.2405 4.36096 46.0318 4.56316 46.0176 4.81562H46.015V6.03332C44.7204 4.43872 42.6793 3.77686 40.6324 3.77686C35.9799 3.77686 32.2083 7.5485 32.2083 12.2013C32.2083 16.8544 35.9799 20.6262 40.6324 20.6262V20.6266C42.6793 20.6266 44.9099 19.8325 46.0148 18.3704L46.015 18.3723ZM40.6407 17.6777C37.6818 17.6777 35.2829 15.2261 35.2829 12.2013C35.2829 9.17712 37.6818 6.72536 40.6407 6.72536C43.5996 6.72536 45.9981 9.17712 45.9981 12.2013C45.9981 15.2261 43.5996 17.6777 40.6407 17.6777Z" fill="#40A2D5"/>
<path fill-rule="evenodd" clip-rule="evenodd" d="M80.4408 18.3718C80.5147 19.2122 81.1874 20.2819 82.3528 20.2819H83.0347C83.2991 20.2819 83.5155 20.0654 83.5155 19.8011V4.81514H83.5128C83.499 4.56267 83.29 4.36047 83.0347 4.36047H80.9217C80.6662 4.36047 80.4575 4.56267 80.4432 4.81514H80.4408V6.03283C79.146 4.43823 77.1049 3.77637 75.058 3.77637C70.4055 3.77637 66.6341 7.54801 66.6341 12.2009C66.6341 16.854 70.4055 20.6257 75.058 20.6257V20.6261C77.1049 20.6261 79.3357 19.832 80.4405 18.3699L80.4408 18.3718ZM75.0662 17.6772C72.1075 17.6772 69.7085 15.2256 69.7085 12.2009C69.7085 9.17664 72.1075 6.72488 75.0662 6.72488C78.0253 6.72488 80.4237 9.17664 80.4237 12.2009C80.4237 15.2256 78.0253 17.6772 75.0662 17.6772Z" fill="#40A2D5"/>
<path fill-rule="evenodd" clip-rule="evenodd" d="M118.925 18.3718C118.999 19.2122 119.671 20.2819 120.837 20.2819H121.519C121.783 20.2819 122 20.0654 122 19.8011V4.81514H121.997C121.983 4.56267 121.774 4.36047 121.519 4.36047H119.406C119.15 4.36047 118.941 4.56267 118.927 4.81514H118.925V6.03283C117.63 4.43823 115.589 3.77637 113.542 3.77637C108.89 3.77637 105.118 7.54801 105.118 12.2009C105.118 16.854 108.89 20.6257 113.542 20.6257V20.6261C115.589 20.6261 117.82 19.832 118.924 18.3699L118.925 18.3718ZM113.55 17.6772C110.591 17.6772 108.193 15.2256 108.193 12.2009C108.193 9.17664 110.591 6.72488 113.55 6.72488C116.509 6.72488 118.908 9.17664 118.908 12.2009C118.908 15.2256 116.509 17.6772 113.55 17.6772Z" fill="#40A2D5"/>
<path fill-rule="evenodd" clip-rule="evenodd" d="M102.445 18.8882L102.444 11.1336H102.445C102.445 6.76237 99.6869 3.81348 95.2896 3.81348C93.1904 3.81348 91.4696 5.02734 90.8619 6.07007C90.7306 5.25473 90.2976 4.3977 88.9553 4.3977H88.2711C88.0065 4.3977 87.7904 4.61436 87.7904 4.87872V18.4103V18.4124V19.8659H87.7931C87.8069 20.118 88.0158 20.3205 88.2714 20.3205H90.3844C90.4167 20.3205 90.4484 20.3166 90.4791 20.3106C90.4931 20.3079 90.5061 20.3024 90.5197 20.2986C90.5354 20.2937 90.5518 20.29 90.5667 20.2839C90.5855 20.2761 90.6025 20.2656 90.6201 20.2559C90.6286 20.2506 90.6376 20.2469 90.6459 20.2414C90.667 20.2279 90.6863 20.2115 90.705 20.1947C90.708 20.1917 90.7118 20.1896 90.7148 20.1868C90.7358 20.1665 90.755 20.1441 90.772 20.1208L90.7721 20.1204C90.8251 20.0478 90.8572 19.9603 90.8624 19.8659H90.8651V11.0134C90.8651 8.66571 92.7685 6.76237 95.1163 6.76237C97.4639 6.76237 99.3673 8.66571 99.3673 11.0134L99.3692 18.4129L99.3697 18.4103C99.3697 18.4169 99.3708 18.4236 99.3708 18.4307V19.8659H99.3736C99.3875 20.118 99.5962 20.3205 99.8517 20.3205H101.965C101.997 20.3205 102.029 20.3166 102.06 20.3106C102.072 20.3083 102.084 20.3033 102.096 20.2999C102.113 20.2949 102.131 20.2905 102.147 20.2839C102.165 20.2767 102.18 20.2668 102.197 20.2575C102.207 20.2519 102.217 20.2478 102.227 20.2414C102.246 20.2286 102.264 20.2132 102.282 20.1978C102.286 20.1937 102.291 20.1907 102.295 20.1864C102.316 20.1671 102.333 20.1463 102.35 20.1244C102.351 20.1227 102.352 20.1215 102.353 20.1198C102.405 20.0478 102.437 19.961 102.443 19.8672C102.443 19.8666 102.443 19.8659 102.443 19.8659H102.446V18.8884L102.445 18.8882Z" fill="#40A2D5"/>
<path fill-rule="evenodd" clip-rule="evenodd" d="M54.1369 16.2257C55.5475 17.203 57.0872 17.6776 58.5668 17.6776C59.9764 17.6776 61.4337 16.9468 61.4337 15.6749C61.4337 13.9767 58.2583 13.7125 56.2632 13.0344C54.2677 12.3563 52.549 10.9545 52.549 8.68449C52.549 5.21097 55.6439 3.77637 58.5326 3.77637C60.3628 3.77637 62.2512 4.37991 63.4755 5.24448C63.8971 5.56397 63.6403 5.93077 63.6403 5.93077L62.4717 7.59994C62.3404 7.78795 62.1107 7.95037 61.781 7.74689C61.4513 7.54354 60.2949 6.725 58.5326 6.725C56.7701 6.725 55.7085 7.53893 55.7085 8.54777C55.7085 9.75754 57.0883 10.138 58.7045 10.5504C61.5208 11.3096 64.5931 12.2221 64.5931 15.6749C64.5931 18.7353 61.7306 20.6266 58.5668 20.6266C56.1693 20.6266 54.1281 19.9432 52.4161 18.6868C52.0595 18.3299 52.3086 17.9985 52.3086 17.9985L53.4715 16.3378C53.7081 16.0272 54.0064 16.1356 54.1369 16.2257Z" fill="#40A2D5"/>
</svg>
