<svg width="374" height="246" viewBox="0 0 374 246" fill="none" xmlns="http://www.w3.org/2000/svg">
<g filter="url(#filter0_dddddd_0_30)">
<path d="M80.5 42C80.5 20.1848 98.1848 2.5 120 2.5H289C291.485 2.5 293.5 4.51472 293.5 7V26C293.5 47.8152 275.815 65.5 254 65.5H85C82.5147 65.5 80.5 63.4853 80.5 61V42Z" stroke="#40A2D5"/>
</g>
<path d="M143.065 34.067C143.065 32.911 143.331 31.874 143.864 30.956C144.408 30.038 145.139 29.324 146.057 28.814C146.986 28.2927 148 28.032 149.1 28.032C150.358 28.032 151.474 28.3437 152.449 28.967C153.435 29.579 154.149 30.4517 154.591 31.585H152.262C151.956 30.9617 151.531 30.497 150.987 30.191C150.443 29.885 149.814 29.732 149.1 29.732C148.318 29.732 147.621 29.9077 147.009 30.259C146.397 30.6103 145.915 31.1147 145.564 31.772C145.224 32.4293 145.054 33.1943 145.054 34.067C145.054 34.9397 145.224 35.7047 145.564 36.362C145.915 37.0193 146.397 37.5293 147.009 37.892C147.621 38.2433 148.318 38.419 149.1 38.419C149.814 38.419 150.443 38.266 150.987 37.96C151.531 37.654 151.956 37.1893 152.262 36.566H154.591C154.149 37.6993 153.435 38.572 152.449 39.184C151.474 39.796 150.358 40.102 149.1 40.102C147.989 40.102 146.975 39.847 146.057 39.337C145.139 38.8157 144.408 38.096 143.864 37.178C143.331 36.26 143.065 35.223 143.065 34.067ZM160.422 40.153C159.538 40.153 158.739 39.9547 158.025 39.558C157.311 39.15 156.75 38.5833 156.342 37.858C155.934 37.1213 155.73 36.2713 155.73 35.308C155.73 34.356 155.94 33.5117 156.359 32.775C156.778 32.0383 157.351 31.4717 158.076 31.075C158.801 30.6783 159.612 30.48 160.507 30.48C161.402 30.48 162.213 30.6783 162.938 31.075C163.663 31.4717 164.236 32.0383 164.655 32.775C165.074 33.5117 165.284 34.356 165.284 35.308C165.284 36.26 165.069 37.1043 164.638 37.841C164.207 38.5777 163.618 39.15 162.87 39.558C162.133 39.9547 161.317 40.153 160.422 40.153ZM160.422 38.47C160.921 38.47 161.385 38.351 161.816 38.113C162.258 37.875 162.615 37.518 162.887 37.042C163.159 36.566 163.295 35.988 163.295 35.308C163.295 34.628 163.165 34.0557 162.904 33.591C162.643 33.115 162.298 32.758 161.867 32.52C161.436 32.282 160.972 32.163 160.473 32.163C159.974 32.163 159.51 32.282 159.079 32.52C158.66 32.758 158.325 33.115 158.076 33.591C157.827 34.0557 157.702 34.628 157.702 35.308C157.702 36.3167 157.957 37.0987 158.467 37.654C158.988 38.198 159.64 38.47 160.422 38.47ZM171.426 30.48C172.162 30.48 172.82 30.633 173.398 30.939C173.987 31.245 174.446 31.6983 174.775 32.299C175.103 32.8997 175.268 33.625 175.268 34.475V40H173.347V34.764C173.347 33.9253 173.137 33.285 172.718 32.843C172.298 32.3897 171.726 32.163 171.001 32.163C170.275 32.163 169.697 32.3897 169.267 32.843C168.847 33.285 168.638 33.9253 168.638 34.764V40H166.7V30.633H168.638V31.704C168.955 31.3187 169.357 31.0183 169.845 30.803C170.343 30.5877 170.87 30.48 171.426 30.48ZM179.501 32.214V37.399C179.501 37.7503 179.58 38.0053 179.739 38.164C179.909 38.3113 180.192 38.385 180.589 38.385H181.779V40H180.249C179.376 40 178.708 39.796 178.243 39.388C177.778 38.98 177.546 38.317 177.546 37.399V32.214H176.441V30.633H177.546V28.304H179.501V30.633H181.779V32.214H179.501ZM182.419 35.274C182.419 34.3333 182.612 33.5003 182.997 32.775C183.394 32.0497 183.926 31.4887 184.595 31.092C185.275 30.684 186.023 30.48 186.839 30.48C187.576 30.48 188.216 30.6273 188.76 30.922C189.315 31.2053 189.757 31.5623 190.086 31.993V30.633H192.041V40H190.086V38.606C189.757 39.048 189.31 39.4163 188.743 39.711C188.176 40.0057 187.53 40.153 186.805 40.153C186 40.153 185.264 39.949 184.595 39.541C183.926 39.1217 183.394 38.5437 182.997 37.807C182.612 37.059 182.419 36.2147 182.419 35.274ZM190.086 35.308C190.086 34.662 189.95 34.101 189.678 33.625C189.417 33.149 189.072 32.7863 188.641 32.537C188.21 32.2877 187.746 32.163 187.247 32.163C186.748 32.163 186.284 32.2877 185.853 32.537C185.422 32.775 185.071 33.132 184.799 33.608C184.538 34.0727 184.408 34.628 184.408 35.274C184.408 35.92 184.538 36.4867 184.799 36.974C185.071 37.4613 185.422 37.8353 185.853 38.096C186.295 38.3453 186.76 38.47 187.247 38.47C187.746 38.47 188.21 38.3453 188.641 38.096C189.072 37.8467 189.417 37.484 189.678 37.008C189.95 36.5207 190.086 35.954 190.086 35.308ZM193.441 35.308C193.441 34.3447 193.633 33.5003 194.019 32.775C194.415 32.0383 194.959 31.4717 195.651 31.075C196.342 30.6783 197.135 30.48 198.031 30.48C199.164 30.48 200.099 30.752 200.836 31.296C201.584 31.8287 202.088 32.5937 202.349 33.591H200.258C200.088 33.1263 199.816 32.7637 199.442 32.503C199.068 32.2423 198.597 32.112 198.031 32.112C197.237 32.112 196.603 32.3953 196.127 32.962C195.662 33.5173 195.43 34.2993 195.43 35.308C195.43 36.3167 195.662 37.1043 196.127 37.671C196.603 38.2377 197.237 38.521 198.031 38.521C199.153 38.521 199.895 38.028 200.258 37.042H202.349C202.077 37.994 201.567 38.7533 200.819 39.32C200.071 39.8753 199.141 40.153 198.031 40.153C197.135 40.153 196.342 39.9547 195.651 39.558C194.959 39.15 194.415 38.5833 194.019 37.858C193.633 37.1213 193.441 36.2713 193.441 35.308ZM206.041 32.214V37.399C206.041 37.7503 206.12 38.0053 206.279 38.164C206.449 38.3113 206.732 38.385 207.129 38.385H208.319V40H206.789C205.916 40 205.248 39.796 204.783 39.388C204.318 38.98 204.086 38.317 204.086 37.399V32.214H202.981V30.633H204.086V28.304H206.041V30.633H208.319V32.214H206.041ZM215.442 28.185V35.716C215.442 36.6113 215.674 37.2857 216.139 37.739C216.615 38.1923 217.272 38.419 218.111 38.419C218.961 38.419 219.618 38.1923 220.083 37.739C220.559 37.2857 220.797 36.6113 220.797 35.716V28.185H222.735V35.682C222.735 36.6453 222.525 37.4613 222.106 38.13C221.687 38.7987 221.126 39.2973 220.423 39.626C219.72 39.9547 218.944 40.119 218.094 40.119C217.244 40.119 216.468 39.9547 215.765 39.626C215.074 39.2973 214.524 38.7987 214.116 38.13C213.708 37.4613 213.504 36.6453 213.504 35.682V28.185H215.442ZM228.158 40.153C227.422 40.153 226.759 40.0227 226.169 39.762C225.591 39.49 225.132 39.1273 224.792 38.674C224.452 38.2093 224.271 37.6937 224.248 37.127H226.254C226.288 37.5237 226.475 37.858 226.815 38.13C227.167 38.3907 227.603 38.521 228.124 38.521C228.668 38.521 229.088 38.419 229.382 38.215C229.688 37.9997 229.841 37.7277 229.841 37.399C229.841 37.0477 229.671 36.787 229.331 36.617C229.003 36.447 228.476 36.26 227.75 36.056C227.048 35.8633 226.475 35.6763 226.033 35.495C225.591 35.3137 225.206 35.036 224.877 34.662C224.56 34.288 224.401 33.795 224.401 33.183C224.401 32.6843 224.549 32.231 224.843 31.823C225.138 31.4037 225.557 31.075 226.101 30.837C226.657 30.599 227.291 30.48 228.005 30.48C229.071 30.48 229.926 30.752 230.572 31.296C231.23 31.8287 231.581 32.5597 231.626 33.489H229.688C229.654 33.0697 229.484 32.7353 229.178 32.486C228.872 32.2367 228.459 32.112 227.937 32.112C227.427 32.112 227.036 32.2083 226.764 32.401C226.492 32.5937 226.356 32.8487 226.356 33.166C226.356 33.4153 226.447 33.625 226.628 33.795C226.81 33.965 227.031 34.101 227.291 34.203C227.552 34.2937 227.937 34.4127 228.447 34.56C229.127 34.7413 229.683 34.9283 230.113 35.121C230.555 35.3023 230.935 35.5743 231.252 35.937C231.57 36.2997 231.734 36.7813 231.745 37.382C231.745 37.9147 231.598 38.3907 231.303 38.81C231.009 39.2293 230.589 39.558 230.045 39.796C229.513 40.034 228.884 40.153 228.158 40.153Z" fill="#40A2D5"/>
<defs>
<filter id="filter0_dddddd_0_30" x="0" y="0.703704" width="374" height="245.296" filterUnits="userSpaceOnUse" color-interpolation-filters="sRGB">
<feFlood flood-opacity="0" result="BackgroundImageFix"/>
<feColorMatrix in="SourceAlpha" type="matrix" values="0 0 0 0 0 0 0 0 0 0 0 0 0 0 0 0 0 0 127 0" result="hardAlpha"/>
<feOffset dy="1.85185"/>
<feGaussianBlur stdDeviation="1.57407"/>
<feColorMatrix type="matrix" values="0 0 0 0 0.219608 0 0 0 0 0.219608 0 0 0 0 0.219608 0 0 0 0.0240741 0"/>
<feBlend mode="normal" in2="BackgroundImageFix" result="effect1_dropShadow_0_30"/>
<feColorMatrix in="SourceAlpha" type="matrix" values="0 0 0 0 0 0 0 0 0 0 0 0 0 0 0 0 0 0 127 0" result="hardAlpha"/>
<feOffset dy="8.14815"/>
<feGaussianBlur stdDeviation="3.25926"/>
<feColorMatrix type="matrix" values="0 0 0 0 0.219608 0 0 0 0 0.219608 0 0 0 0 0.219608 0 0 0 0.0392593 0"/>
<feBlend mode="normal" in2="effect1_dropShadow_0_30" result="effect2_dropShadow_0_30"/>
<feColorMatrix in="SourceAlpha" type="matrix" values="0 0 0 0 0 0 0 0 0 0 0 0 0 0 0 0 0 0 127 0" result="hardAlpha"/>
<feOffset dy="20"/>
<feGaussianBlur stdDeviation="6.5"/>
<feColorMatrix type="matrix" values="0 0 0 0 0.219608 0 0 0 0 0.219608 0 0 0 0 0.219608 0 0 0 0.05 0"/>
<feBlend mode="normal" in2="effect2_dropShadow_0_30" result="effect3_dropShadow_0_30"/>
<feColorMatrix in="SourceAlpha" type="matrix" values="0 0 0 0 0 0 0 0 0 0 0 0 0 0 0 0 0 0 127 0" result="hardAlpha"/>
<feOffset dy="38.5185"/>
<feGaussianBlur stdDeviation="12.7407"/>
<feColorMatrix type="matrix" values="0 0 0 0 0.219608 0 0 0 0 0.219608 0 0 0 0 0.219608 0 0 0 0.0607407 0"/>
<feBlend mode="normal" in2="effect3_dropShadow_0_30" result="effect4_dropShadow_0_30"/>
<feColorMatrix in="SourceAlpha" type="matrix" values="0 0 0 0 0 0 0 0 0 0 0 0 0 0 0 0 0 0 127 0" result="hardAlpha"/>
<feOffset dy="64.8148"/>
<feGaussianBlur stdDeviation="23.4259"/>
<feColorMatrix type="matrix" values="0 0 0 0 0.219608 0 0 0 0 0.219608 0 0 0 0 0.219608 0 0 0 0.0759259 0"/>
<feBlend mode="normal" in2="effect4_dropShadow_0_30" result="effect5_dropShadow_0_30"/>
<feColorMatrix in="SourceAlpha" type="matrix" values="0 0 0 0 0 0 0 0 0 0 0 0 0 0 0 0 0 0 127 0" result="hardAlpha"/>
<feOffset dy="100"/>
<feGaussianBlur stdDeviation="40"/>
<feColorMatrix type="matrix" values="0 0 0 0 0.219608 0 0 0 0 0.219608 0 0 0 0 0.219608 0 0 0 0.1 0"/>
<feBlend mode="normal" in2="effect5_dropShadow_0_30" result="effect6_dropShadow_0_30"/>
<feBlend mode="normal" in="SourceGraphic" in2="effect6_dropShadow_0_30" result="shape"/>
</filter>
</defs>
</svg>
