<svg width="308" height="178" viewBox="0 0 308 178" fill="none" xmlns="http://www.w3.org/2000/svg">
<g filter="url(#filter0_ddddd_0_27)">
<path d="M47 42C47 19.9086 64.9086 2 87 2H256C258.761 2 261 4.23858 261 7V26C261 48.0914 243.091 66 221 66H52C49.2386 66 47 63.7614 47 61V42Z" fill="#40A2D5"/>
</g>
<path d="M128.583 29.749V33.217H132.663V34.798H128.583V38.419H133.173V40H126.645V28.168H133.173V29.749H128.583ZM139.072 35.257L142.098 40H139.905L137.882 36.821L135.978 40H133.955L136.981 35.393L133.955 30.633H136.148L138.171 33.812L140.075 30.633H142.098L139.072 35.257ZM144.982 32.01C145.31 31.5793 145.758 31.2167 146.325 30.922C146.891 30.6273 147.532 30.48 148.246 30.48C149.062 30.48 149.804 30.684 150.473 31.092C151.153 31.4887 151.685 32.0497 152.071 32.775C152.456 33.5003 152.649 34.3333 152.649 35.274C152.649 36.2147 152.456 37.059 152.071 37.807C151.685 38.5437 151.153 39.1217 150.473 39.541C149.804 39.949 149.062 40.153 148.246 40.153C147.532 40.153 146.897 40.0113 146.342 39.728C145.786 39.4333 145.333 39.0707 144.982 38.64V44.454H143.044V30.633H144.982V32.01ZM150.677 35.274C150.677 34.628 150.541 34.0727 150.269 33.608C150.008 33.132 149.657 32.775 149.215 32.537C148.784 32.2877 148.319 32.163 147.821 32.163C147.333 32.163 146.869 32.2877 146.427 32.537C145.996 32.7863 145.645 33.149 145.373 33.625C145.112 34.101 144.982 34.662 144.982 35.308C144.982 35.954 145.112 36.5207 145.373 37.008C145.645 37.484 145.996 37.8467 146.427 38.096C146.869 38.3453 147.333 38.47 147.821 38.47C148.319 38.47 148.784 38.3453 149.215 38.096C149.657 37.8353 150.008 37.4613 150.269 36.974C150.541 36.4867 150.677 35.92 150.677 35.274ZM156.003 27.42V40H154.065V27.42H156.003ZM162.11 40.153C161.226 40.153 160.427 39.9547 159.713 39.558C158.999 39.15 158.438 38.5833 158.03 37.858C157.622 37.1213 157.418 36.2713 157.418 35.308C157.418 34.356 157.628 33.5117 158.047 32.775C158.467 32.0383 159.039 31.4717 159.764 31.075C160.49 30.6783 161.3 30.48 162.195 30.48C163.091 30.48 163.901 30.6783 164.626 31.075C165.352 31.4717 165.924 32.0383 166.343 32.775C166.763 33.5117 166.972 34.356 166.972 35.308C166.972 36.26 166.757 37.1043 166.326 37.841C165.896 38.5777 165.306 39.15 164.558 39.558C163.822 39.9547 163.006 40.153 162.11 40.153ZM162.11 38.47C162.609 38.47 163.074 38.351 163.504 38.113C163.946 37.875 164.303 37.518 164.575 37.042C164.847 36.566 164.983 35.988 164.983 35.308C164.983 34.628 164.853 34.0557 164.592 33.591C164.332 33.115 163.986 32.758 163.555 32.52C163.125 32.282 162.66 32.163 162.161 32.163C161.663 32.163 161.198 32.282 160.767 32.52C160.348 32.758 160.014 33.115 159.764 33.591C159.515 34.0557 159.39 34.628 159.39 35.308C159.39 36.3167 159.645 37.0987 160.155 37.654C160.677 38.198 161.328 38.47 162.11 38.47ZM170.326 31.993C170.61 31.517 170.984 31.1487 171.448 30.888C171.924 30.616 172.485 30.48 173.131 30.48V32.486H172.638C171.879 32.486 171.301 32.6787 170.904 33.064C170.519 33.4493 170.326 34.118 170.326 35.07V40H168.388V30.633H170.326V31.993ZM182.998 35.087C182.998 35.4383 182.975 35.7557 182.93 36.039H175.773C175.829 36.787 176.107 37.3877 176.606 37.841C177.104 38.2943 177.716 38.521 178.442 38.521C179.484 38.521 180.221 38.0847 180.652 37.212H182.743C182.459 38.0733 181.944 38.7817 181.196 39.337C180.459 39.881 179.541 40.153 178.442 40.153C177.546 40.153 176.742 39.9547 176.028 39.558C175.325 39.15 174.77 38.5833 174.362 37.858C173.965 37.1213 173.767 36.2713 173.767 35.308C173.767 34.3447 173.959 33.5003 174.345 32.775C174.741 32.0383 175.291 31.4717 175.994 31.075C176.708 30.6783 177.524 30.48 178.442 30.48C179.326 30.48 180.113 30.6727 180.805 31.058C181.496 31.4433 182.034 31.9873 182.42 32.69C182.805 33.3813 182.998 34.1803 182.998 35.087ZM180.975 34.475C180.963 33.761 180.708 33.1887 180.21 32.758C179.711 32.3273 179.093 32.112 178.357 32.112C177.688 32.112 177.116 32.3273 176.64 32.758C176.164 33.1773 175.88 33.7497 175.79 34.475H180.975Z" fill="white"/>
<defs>
<filter id="filter0_ddddd_0_27" x="0.148148" y="0.703704" width="307.704" height="176.963" filterUnits="userSpaceOnUse" color-interpolation-filters="sRGB">
<feFlood flood-opacity="0" result="BackgroundImageFix"/>
<feColorMatrix in="SourceAlpha" type="matrix" values="0 0 0 0 0 0 0 0 0 0 0 0 0 0 0 0 0 0 127 0" result="hardAlpha"/>
<feOffset dy="1.85185"/>
<feGaussianBlur stdDeviation="1.57407"/>
<feColorMatrix type="matrix" values="0 0 0 0 0.25098 0 0 0 0 0.635294 0 0 0 0 0.835294 0 0 0 0.0240741 0"/>
<feBlend mode="normal" in2="BackgroundImageFix" result="effect1_dropShadow_0_27"/>
<feColorMatrix in="SourceAlpha" type="matrix" values="0 0 0 0 0 0 0 0 0 0 0 0 0 0 0 0 0 0 127 0" result="hardAlpha"/>
<feOffset dy="8.14815"/>
<feGaussianBlur stdDeviation="3.25926"/>
<feColorMatrix type="matrix" values="0 0 0 0 0.25098 0 0 0 0 0.635294 0 0 0 0 0.835294 0 0 0 0.0392593 0"/>
<feBlend mode="normal" in2="effect1_dropShadow_0_27" result="effect2_dropShadow_0_27"/>
<feColorMatrix in="SourceAlpha" type="matrix" values="0 0 0 0 0 0 0 0 0 0 0 0 0 0 0 0 0 0 127 0" result="hardAlpha"/>
<feOffset dy="20"/>
<feGaussianBlur stdDeviation="6.5"/>
<feColorMatrix type="matrix" values="0 0 0 0 0.25098 0 0 0 0 0.635294 0 0 0 0 0.835294 0 0 0 0.05 0"/>
<feBlend mode="normal" in2="effect2_dropShadow_0_27" result="effect3_dropShadow_0_27"/>
<feColorMatrix in="SourceAlpha" type="matrix" values="0 0 0 0 0 0 0 0 0 0 0 0 0 0 0 0 0 0 127 0" result="hardAlpha"/>
<feOffset dy="38.5185"/>
<feGaussianBlur stdDeviation="12.7407"/>
<feColorMatrix type="matrix" values="0 0 0 0 0.25098 0 0 0 0 0.635294 0 0 0 0 0.835294 0 0 0 0.0607407 0"/>
<feBlend mode="normal" in2="effect3_dropShadow_0_27" result="effect4_dropShadow_0_27"/>
<feColorMatrix in="SourceAlpha" type="matrix" values="0 0 0 0 0 0 0 0 0 0 0 0 0 0 0 0 0 0 127 0" result="hardAlpha"/>
<feOffset dy="64.8148"/>
<feGaussianBlur stdDeviation="23.4259"/>
<feColorMatrix type="matrix" values="0 0 0 0 0.25098 0 0 0 0 0.635294 0 0 0 0 0.835294 0 0 0 0.0759259 0"/>
<feBlend mode="normal" in2="effect4_dropShadow_0_27" result="effect5_dropShadow_0_27"/>
<feBlend mode="normal" in="SourceGraphic" in2="effect5_dropShadow_0_27" result="shape"/>
</filter>
</defs>
</svg>
