<svg width="120" height="20" viewBox="0 0 120 20" fill="none" xmlns="http://www.w3.org/2000/svg">
<path d="M11.8738 10.3318C12.8283 10.4081 13.6301 10.7899 14.3173 11.5154C15.0046 12.2408 15.3482 13.2335 15.3482 14.4934C15.3482 16.0206 14.8519 17.2806 13.821 18.1969C12.7901 19.1132 11.3393 19.5714 9.39212 19.5714H-0.000183105V1.474H9.35394C10.9957 1.474 12.332 1.93216 13.3247 2.8103C14.3173 3.72662 14.8137 4.91021 14.8137 6.39923C14.8137 7.54463 14.5082 8.42277 13.8592 9.11001C13.2101 9.79726 12.5611 10.1409 11.8356 10.2172L11.8738 10.3318ZM4.46689 8.95729H8.36125C9.01032 8.95729 9.54484 8.76639 9.96482 8.38459C10.3466 8.00279 10.5757 7.54463 10.5757 6.89557C10.5757 6.32287 10.3848 5.90289 10.003 5.55927C9.6212 5.21565 9.12486 5.06293 8.55216 5.06293H4.46689V8.95729ZM8.59034 15.9824C9.27758 15.9824 9.85028 15.7915 10.2321 15.4479C10.6139 15.1043 10.8048 14.6079 10.8048 13.9589C10.8048 13.348 10.6139 12.8898 10.1939 12.5462C9.8121 12.2026 9.27758 12.0117 8.6667 12.0117H4.46689V15.9824H8.59034ZM30.8111 19.5714H26.4968V18.2732C25.4278 19.4186 24.0151 19.9913 22.3352 19.9913C20.7316 19.9913 19.4717 19.4568 18.5172 18.426C17.5627 17.3951 17.0663 16.0206 17.0663 14.3407V6.01743H21.3425V13.4244C21.3425 14.2261 21.5716 14.8752 21.9915 15.3715C22.4115 15.8679 22.9842 16.097 23.6715 16.097C24.5496 16.097 25.2369 15.7915 25.7332 15.1806C26.2295 14.5698 26.4586 13.6153 26.4586 12.3171V6.01743H30.773L30.8111 19.5714ZM44.136 19.5714H32.682V18.7696L38.0654 9.45364H32.8347V6.01743H44.0596V6.81921L38.6762 16.1352H44.0978V19.5714H44.136ZM57.4227 19.5714H46.0068V18.7696L51.352 9.45364H46.1214V6.01743H57.3463V6.81921L51.9629 16.1352H57.3845L57.4227 19.5714ZM63.8369 9.22456H71.6638V13.1189H63.8369V19.6095H59.3698V1.474H72.3511V5.36837H63.8369V9.22456ZM103.315 13.9207H93.3883C93.6556 15.6006 94.9155 16.5551 96.7863 16.5551C98.2754 16.5551 99.7644 15.9824 100.872 15.1043L102.513 17.9678C100.986 19.2659 99.039 19.9913 96.7863 19.9913C92.2429 19.9913 89.1503 17.2424 89.1503 12.8135C89.1503 10.7136 89.8376 8.99547 91.212 7.65917C92.5865 6.32287 94.3046 5.63563 96.3282 5.63563C98.2754 5.63563 99.9171 6.28469 101.253 7.62099C102.59 8.95729 103.277 10.6754 103.315 12.8517V13.9207ZM94.5719 9.68272C94.0374 10.0645 93.6556 10.599 93.4647 11.2481H99.0389C98.8481 10.5609 98.5044 10.0263 98.0081 9.64454C97.5117 9.30091 96.939 9.11001 96.3282 9.11001C95.6791 9.11001 95.1064 9.30091 94.5719 9.68272ZM87.5086 13.9207H77.5817C77.849 15.6006 79.1089 16.5551 80.9798 16.5551C82.4688 16.5551 83.9578 15.9824 85.065 15.1043L86.7068 17.9678C85.1796 19.2659 83.2324 19.9913 80.9798 19.9913C76.4363 19.9913 73.3438 17.2424 73.3438 12.8135C73.3438 10.7136 74.031 8.99547 75.4055 7.65917C76.78 6.32287 78.4981 5.63563 80.5216 5.63563C82.4688 5.63563 84.1105 6.28469 85.4468 7.62099C86.7831 8.95729 87.4704 10.6754 87.5086 12.8517V13.9207ZM78.7653 9.68272C78.2308 10.0645 77.849 10.599 77.6581 11.2481H83.2324C83.0415 10.5609 82.6979 10.0263 82.2015 9.64454C81.7052 9.30091 81.1325 9.11001 80.5216 9.11001C79.8726 9.11001 79.2999 9.30091 78.7653 9.68272ZM120 19.5714H115.685V18.5023C114.578 19.495 113.204 19.9913 111.486 19.9913C109.653 19.9913 108.088 19.3041 106.79 17.9678C105.491 16.6315 104.842 14.9134 104.842 12.8135C104.842 10.7136 105.491 8.99547 106.79 7.65917C108.088 6.32287 109.653 5.63563 111.486 5.63563C113.204 5.63563 114.616 6.13197 115.685 7.12465V0.137695H120V19.5714ZM114.731 15.3334C115.38 14.6843 115.724 13.8443 115.724 12.8135C115.724 11.8208 115.38 10.9808 114.731 10.2936C114.082 9.64454 113.28 9.30091 112.402 9.30091C111.447 9.30091 110.684 9.64454 110.073 10.2936C109.462 10.9427 109.157 11.7826 109.157 12.8135C109.157 13.8443 109.462 14.7225 110.073 15.3715C110.684 16.0206 111.447 16.3261 112.402 16.3261C113.28 16.3261 114.044 15.9824 114.731 15.3334Z" fill="#40A2D5"/>
</svg>
