<svg width="133" height="33" viewBox="0 0 133 33" fill="none" xmlns="http://www.w3.org/2000/svg">
<path d="M-0.000183105 6.7421C-0.000183105 6.7421 3.30401 20.307 3.83135 22.5088C4.44685 25.0787 5.55586 26.0245 8.75336 25.3867L10.8166 16.9765C11.3395 14.8875 11.6903 13.3981 12.0264 11.2731H12.0855C12.3217 13.419 12.658 14.8937 13.0884 16.9838C13.0884 16.9838 13.9282 20.8018 14.3583 22.8071C14.7896 24.8118 15.9897 26.0752 19.1217 25.3874L24.0378 6.74353H20.0686L18.3903 14.8042C17.939 17.1505 17.5295 18.9838 17.2139 21.1303H17.1579C16.8709 19.0052 16.506 17.2445 16.0473 14.9585L14.2997 6.74353H10.1642L8.29487 14.7515C7.76529 17.1849 7.26997 19.1499 6.95499 21.2236H6.89794C6.57538 19.2707 6.14574 16.8011 5.68051 14.4455C5.68051 14.4455 4.56992 8.71783 4.18027 6.74353L0.000203361 6.74407L-0.000183105 6.7421ZM37.8379 6.7421V25.386H41.6169V21.427V6.74121H37.8379V6.7421ZM91.0615 6.7421V20.496C91.0615 22.3923 91.4178 23.7209 92.1798 24.5325C92.8456 25.2424 93.9423 25.7021 95.2564 25.7021C96.3737 25.7021 97.473 25.4898 97.9911 25.2964L97.9424 22.3378C97.5569 22.4328 97.1134 22.5089 96.5068 22.5089C95.2195 22.5089 94.7878 21.6829 94.7878 19.9802V14.718H98.079V11.1509H94.7878V6.74215H91.0613L91.0615 6.7421ZM29.3926 11.0641C27.0441 11.0641 25.1798 11.7248 24.1636 12.3131L24.9072 14.8645C25.8373 14.277 27.3181 13.7908 28.7203 13.7908C31.0417 13.7848 31.4212 15.1059 31.4212 15.9531V16.1535C26.3628 16.1459 23.1676 17.8995 23.1676 21.4742C23.1676 23.6567 24.7942 25.702 27.6225 25.702C29.3635 25.702 30.8196 25.0063 31.6923 23.8917H31.7779C31.7779 23.8917 32.3558 26.3124 35.5394 25.3867C35.3722 24.3792 35.3179 23.305 35.3179 22.0112V17.0306C35.3179 13.8562 33.965 11.0642 29.3926 11.0642L29.3926 11.0641ZM51.9982 11.0641C49.6334 11.0641 48.5708 12.2648 47.9264 13.2834H47.8704V11.3803H44.264V25.3868H48.0631V17.1726C48.0631 16.7875 48.107 16.3803 48.2412 16.0261C48.556 15.199 49.324 14.2316 50.5502 14.2316C52.0831 14.2316 52.8004 15.53 52.8004 17.4039V25.3867H56.5955V17.0731C56.5955 16.7055 56.6458 16.2627 56.7537 15.9377C57.0657 14.9969 57.8937 14.2315 59.0335 14.2315C60.5876 14.2315 61.3334 15.5073 61.3334 17.7122V25.3867H65.1311V17.1373C65.1311 12.7867 62.9261 11.0642 60.4371 11.0642C59.3347 11.0642 58.4647 11.3411 57.678 11.825C57.0168 12.2315 56.4249 12.809 55.9075 13.5695H55.8515C55.2496 12.06 53.8373 11.0642 51.9975 11.0642L51.9982 11.0641ZM72.8602 11.0641C70.5122 11.0641 68.6483 11.7248 67.6312 12.3131L68.3759 14.8645C69.305 14.277 70.7868 13.7908 72.1882 13.7908C74.5081 13.7848 74.8885 15.1059 74.8885 15.9531V16.1535C69.8308 16.1459 66.6352 17.8995 66.6352 21.4742C66.6352 23.6567 68.2626 25.702 71.0924 25.702C72.8321 25.702 74.2887 25.0063 75.1597 23.8917H75.2456C75.2456 23.8917 75.8234 26.3124 79.0075 25.3867C78.84 24.3792 78.7863 23.305 78.7863 22.0112V17.0306C78.7863 13.8562 77.4331 11.0642 72.8602 11.0642L72.8602 11.0641ZM88.6369 11.0641C87.1822 11.0641 85.5271 12.005 84.8323 14.0217H84.7262V11.3801H81.3063V25.3867H85.2049V18.2144C85.2049 17.8275 85.2283 17.4902 85.2895 17.1808C85.5778 15.6784 86.7248 14.718 88.371 14.718C88.823 14.718 89.1464 14.767 89.4963 14.8176V11.1508C89.2029 11.0914 89.0022 11.064 88.6371 11.064L88.6369 11.0641ZM31.5433 18.6355V20.3829C31.5433 20.6413 31.5208 20.908 31.4494 21.1412C31.1569 22.1116 30.1534 22.9317 28.899 22.9317C27.8532 22.9317 27.0225 22.337 27.0225 21.0791C27.0225 19.1549 29.1366 18.623 31.5434 18.6355H31.5433ZM75.0109 18.6355V20.3829C75.0109 20.6413 74.988 20.908 74.917 21.1412C74.6245 22.1116 73.6214 22.9317 72.367 22.9317C71.321 22.9317 70.4901 22.337 70.4901 21.0791C70.4901 19.1549 72.6042 18.623 75.011 18.6355H75.0109Z" fill="#40A2D5"/>
<path d="M118.51 0C117.29 0 116.32 0.682568 116.32 1.51352L117.061 9.91884C117.143 10.4252 117.762 10.8159 118.511 10.8159C119.261 10.8149 119.878 10.4246 119.961 9.91884L120.706 1.51352C120.706 0.682639 119.733 7.13722e-05 118.512 7.13722e-05L118.51 0ZM106.436 6.74235C105.803 6.75741 105.083 7.23784 104.625 8.03283C104.013 9.09144 104.122 10.2745 104.838 10.6895L112.473 14.2518C112.95 14.4296 113.598 14.0902 113.973 13.4423C113.973 13.4422 113.973 13.442 113.973 13.4419C114.35 12.7908 114.321 12.0587 113.924 11.7339L107.028 6.88813C106.849 6.78421 106.648 6.73744 106.436 6.74246L106.436 6.74235ZM130.584 6.74235C130.373 6.73733 130.172 6.7841 129.993 6.88802L123.096 11.7338C122.702 12.0586 122.673 12.7907 123.048 13.4418L123.048 13.4422C123.425 14.0901 124.07 14.4295 124.547 14.2517L132.186 10.6896C132.905 10.2745 133.008 9.09157 132.4 8.03291C131.941 7.23789 131.22 6.75749 130.587 6.74243L130.584 6.74235ZM112.758 17.832C112.66 17.8306 112.564 17.8459 112.474 17.8797L104.839 21.4378C104.123 21.8547 104.014 23.0381 104.627 24.0979C105.237 25.1544 106.312 25.6567 107.029 25.2423L113.925 20.4003C114.322 20.0716 114.351 19.3396 113.974 18.6891L113.977 18.6906C113.673 18.1607 113.187 17.8377 112.759 17.8319L112.758 17.832ZM124.265 17.832C123.838 17.8378 123.353 18.1608 123.047 18.6907L123.05 18.6893C122.675 19.3397 122.704 20.0717 123.098 20.4004L129.995 25.2424C130.71 25.6568 131.787 25.1545 132.4 24.098C133.008 23.0382 132.905 21.8547 132.185 21.4379L124.549 17.8798C124.46 17.846 124.364 17.8307 124.265 17.8321L124.265 17.832ZM118.509 21.3155C117.762 21.3164 117.144 21.7053 117.062 22.2104L116.321 30.6154C116.321 31.4477 117.291 32.1289 118.511 32.1289C119.733 32.1289 120.705 31.4477 120.705 30.6154L119.962 22.2104C119.879 21.7053 119.262 21.3164 118.512 21.3155H118.509H118.509Z" fill="#40A2D5"/>
</svg>
